<svg width="135" height="45" viewBox="0 0 135 45" fill="none" xmlns="http://www.w3.org/2000/svg">
    <mask id="mask0_17_57" style="mask-type:luminance" maskUnits="userSpaceOnUse" x="0" y="0" width="43" height="44">
        <path d="M0 0.545929H42.5739V43.1199H0V0.545929Z" fill="white"/>
    </mask>
    <g mask="url(#mask0_17_57)">
        <path d="M42.5739 17.5755V5.68565C42.5739 2.84708 40.2728 0.545929 37.4342 0.545929H25.5444L21.287 4.80332L17.0296 0.545929H5.13972C2.30116 0.545929 0 2.84708 0 5.68565V17.5755L4.2574 21.8329L0 26.0903V37.9801C0 40.8187 2.30116 43.1199 5.13972 43.1199H17.0296L21.287 38.8625L25.5444 43.1199H37.4342C40.2728 43.1199 42.5739 40.8187 42.5739 37.9801V26.0903L38.3165 21.8329L42.5739 17.5755Z" fill="#E7FAFF"/>
        <path d="M13.6545 0.545929H5.13972C2.30115 0.545929 0 2.84708 0 5.68565V17.5755L4.25739 21.8329L0 26.0903V37.9801C0 40.8187 2.30115 43.1199 5.13972 43.1199H13.6545C10.8159 43.1199 8.51479 40.8187 8.51479 37.9801V5.68565C8.51479 2.84708 10.8159 0.545929 13.6545 0.545929Z" fill="#C1F1FF"/>
        <path d="M25.5443 17.5755L21.2869 18.4321L17.0295 17.5755V9.06071L21.2869 8.20407L25.5443 9.06071V17.5755Z" fill="#CABAF7"/>
        <path d="M20.4561 8.37127L17.0295 9.06069V17.5755L20.4561 18.2649V8.37127Z" fill="#BDAFF2"/>
        <path d="M8.51484 26.0903L7.6582 21.8329L8.51484 17.5755H17.0296L17.8863 21.8329L17.0296 26.0903H8.51484Z" fill="#FFDE83"/>
        <path d="M8.51484 17.5755L7.6582 21.8329L8.51484 26.0903H11.9414V17.5755H8.51484Z" fill="#F4CD6C"/>
        <path d="M25.5444 26.0903L24.6877 21.8329L25.5444 17.5755H34.0591L34.9157 21.8329L34.0591 26.0903H25.5444Z" fill="#5AD6FF"/>
        <path d="M25.5444 17.5755L24.6877 21.8329L25.5444 26.0903H28.9708V17.5755H25.5444Z" fill="#00BDFD"/>
        <path d="M25.5443 34.605L21.2869 35.4617L17.0295 34.605V26.0902L21.2869 25.2336L25.5443 26.0902V34.605Z" fill="#FE5B70"/>
        <path d="M20.4561 25.4008L17.0295 26.0903V34.605L20.4561 35.2944V25.4008Z" fill="#EF506B"/>
        <path d="M25.5443 26.0903H17.0295V17.5755H25.5443V26.0903Z" fill="#90AECF"/>
        <path d="M20.4561 17.5755H17.0295V26.0903H20.4561V17.5755Z" fill="#7C96B3"/>
        <path d="M25.5443 43.1199H17.0295V34.6051H25.5443V43.1199Z" fill="#FF7591"/>
        <path d="M20.4561 34.6051H17.0295V43.1199H20.4561V34.6051Z" fill="#FE5B70"/>
        <path d="M25.5443 9.06079H17.0295V0.546003H25.5443V9.06079Z" fill="#D9C9F4"/>
        <path d="M20.4561 0.546003H17.0295V9.06079H20.4561V0.546003Z" fill="#CABAF7"/>
        <path d="M0 17.5755H8.51479V26.0903H0V17.5755Z" fill="#FFF18F"/>
        <path d="M0 26.0903H3.42645V17.5755H0V26.0903Z" fill="#FFDE83"/>
        <path d="M34.0593 17.5755H42.5741V26.0903H34.0593V17.5755Z" fill="#00BDFD"/>
        <path d="M34.0593 26.0903H37.4859V17.5755H34.0593V26.0903Z" fill="#00AAD8"/>
        <path d="M13.6544 9.06072C13.6544 11.8993 11.3533 14.2004 8.51472 14.2004C5.67615 14.2004 3.375 11.8993 3.375 9.06072C3.375 6.22215 5.67615 3.921 8.51472 3.921C11.3533 3.921 13.6544 6.22215 13.6544 9.06072Z" fill="#FFF18F"/>
        <path d="M6.8017 9.06072C6.8017 6.82301 8.23217 4.92032 10.2282 4.2146C9.67795 4.01998 9.09857 3.92068 8.51497 3.92099C5.67632 3.92099 3.37524 6.22215 3.37524 9.06072C3.37524 11.8993 5.67632 14.2004 8.51497 14.2004C9.09857 14.2007 9.67795 14.1015 10.2282 13.9068C8.23217 13.2011 6.8017 11.2984 6.8017 9.06072Z" fill="#FFDE83"/>
        <path d="M34.0592 14.2004C31.2206 14.2004 28.9194 11.8993 28.9194 9.06072C28.9194 6.22215 31.2206 3.921 34.0592 3.921C36.8978 3.921 39.199 6.22215 39.199 9.06072C39.199 11.8993 36.8978 14.2004 34.0592 14.2004Z" fill="#D9C9F4"/>
        <path d="M32.3459 9.06072C32.3459 6.82301 33.7764 4.92032 35.7724 4.2146C35.2222 4.01998 34.6428 3.92069 34.0592 3.92099C31.2206 3.92099 28.9194 6.22215 28.9194 9.06072C28.9194 11.8993 31.2206 14.2004 34.0592 14.2004C34.6428 14.2007 35.2222 14.1015 35.7724 13.9068C33.7764 13.2011 32.3459 11.2984 32.3459 9.06072Z" fill="#CABAF7"/>
        <path d="M28.9197 34.6052C28.9197 31.7666 31.2208 29.4654 34.0594 29.4654C36.898 29.4654 39.1991 31.7666 39.1991 34.6052C39.1991 37.4437 36.898 39.7449 34.0594 39.7449C31.2208 39.7449 28.9197 37.4437 28.9197 34.6052Z" fill="#5AD6FF"/>
        <path d="M32.3459 34.6052C32.3459 32.3674 33.7764 30.4648 35.7724 29.759C35.2222 29.5644 34.6428 29.4651 34.0592 29.4654C31.2206 29.4654 28.9194 31.7666 28.9194 34.6052C28.9194 37.4437 31.2206 39.7449 34.0592 39.7449C34.6428 39.7452 35.2222 39.6459 35.7724 39.4513C33.7764 38.7455 32.3459 36.8429 32.3459 34.6052Z" fill="#00BDFD"/>
        <path d="M8.51497 29.4654C11.3535 29.4654 13.6547 31.7666 13.6547 34.6052C13.6547 37.4437 11.3535 39.7449 8.51497 39.7449C5.6764 39.7449 3.37524 37.4437 3.37524 34.6052C3.37524 31.7666 5.6764 29.4654 8.51497 29.4654Z" fill="#FF7591"/>
        <path d="M6.8017 34.6052C6.8017 32.3674 8.23217 30.4648 10.2282 29.759C9.67795 29.5644 9.09857 29.4651 8.51497 29.4654C5.67632 29.4654 3.37524 31.7666 3.37524 34.6052C3.37524 37.4437 5.67632 39.7449 8.51497 39.7449C9.09857 39.7452 9.67795 39.6459 10.2282 39.4513C8.23217 38.7455 6.8017 36.8429 6.8017 34.6052Z" fill="#FE5B70"/>
    </g>
    <path d="M62.4954 2.47435C62.4954 2.28028 63.0194 2.18324 64.0674 2.18324C65.1251 2.18324 65.6539 2.28028 65.6539 2.47435V9.15521C65.6539 10.145 65.2997 10.9552 64.5914 11.5859C63.883 12.207 62.903 12.5175 61.6512 12.5175C60.4092 12.5175 59.3952 12.1973 58.6092 11.5568C57.8329 10.9067 57.4448 10.0334 57.4448 8.93688V2.4889C57.4448 2.29483 57.9687 2.1978 59.0167 2.1978C60.0744 2.1978 60.6032 2.29483 60.6032 2.4889V9.05332C60.6032 9.24739 60.7051 9.40265 60.9089 9.51909C61.1224 9.63553 61.3456 9.69376 61.5785 9.69376C61.8113 9.69376 62.02 9.64039 62.2043 9.53365C62.3984 9.42691 62.4954 9.2668 62.4954 9.05332V2.47435Z" fill="#E7FAFF"/>
    <path d="M74.8518 12.0517C74.8518 12.2555 74.3958 12.3574 73.4836 12.3574C72.5715 12.3574 72.0766 12.2846 71.999 12.139L69.5683 7.5978V12.1245C69.5683 12.2991 69.1171 12.3865 68.2146 12.3865C67.3219 12.3865 66.8755 12.2991 66.8755 12.1245V2.38702C66.8755 2.24146 67.2588 2.16869 68.0254 2.16869C68.3262 2.16869 68.6755 2.1978 69.0734 2.25602C69.4809 2.30454 69.7284 2.40157 69.8157 2.54713L72.1445 7.03014V2.45979C72.1445 2.27543 72.5958 2.18324 73.4982 2.18324C74.4006 2.18324 74.8518 2.27543 74.8518 2.45979V12.0517Z" fill="#E7FAFF"/>
    <path d="M83.4603 4.81774C83.4603 5.82691 83.0237 6.59349 82.1504 7.11748C82.6258 7.29214 83.0237 7.59295 83.3439 8.0199C83.6641 8.44686 83.8242 9.05332 83.8242 9.83931C83.8242 10.6156 83.5331 11.2318 82.9509 11.6878C82.3784 12.1439 81.5536 12.3719 80.4765 12.3719H77.0415C76.8765 12.3719 76.7407 12.3186 76.6339 12.2118C76.5272 12.0954 76.4738 11.945 76.4738 11.7606V2.44524C76.4738 2.3385 76.4884 2.27058 76.5175 2.24146C76.5563 2.20265 76.6291 2.18324 76.7358 2.18324H80.0544C82.325 2.18324 83.4603 3.06141 83.4603 4.81774ZM79.2684 4.54119V6.44793H79.3412C80.2727 6.44793 80.7385 6.13742 80.7385 5.5164C80.7385 5.17677 80.6463 4.92934 80.462 4.77408C80.2873 4.61882 79.9913 4.54119 79.5741 4.54119H79.2684ZM79.2684 8.16545V10.0576H79.5304C79.9477 10.0576 80.2533 9.98001 80.4474 9.82475C80.6415 9.6695 80.7385 9.42206 80.7385 9.08244C80.7385 8.74281 80.6463 8.50508 80.462 8.36923C80.2873 8.23338 79.9913 8.16545 79.5741 8.16545H79.2684Z" fill="#E7FAFF"/>
    <path d="M84.8103 11.5132V2.45979C84.8103 2.25602 85.3004 2.15413 86.2804 2.15413C87.2702 2.15413 87.7651 2.25602 87.7651 2.45979V9.59187H90.0066C90.1812 9.59187 90.3025 9.8199 90.3705 10.276C90.3996 10.4991 90.4141 10.7272 90.4141 10.9601C90.4141 11.1929 90.3996 11.4307 90.3705 11.6733C90.2928 12.139 90.1667 12.3719 89.992 12.3719H85.509C85.2955 12.3719 85.1257 12.2846 84.9996 12.1099C84.8734 11.9353 84.8103 11.7363 84.8103 11.5132Z" fill="#E7FAFF"/>
    <path d="M95.6041 12.5175C94.2456 12.5175 93.1346 12.0711 92.2709 11.1784C91.417 10.2857 90.9901 8.9854 90.9901 7.27758C90.9901 5.56006 91.4219 4.25979 92.2855 3.37677C93.1588 2.49376 94.2796 2.05225 95.6478 2.05225C97.0257 2.05225 98.1367 2.4889 98.9809 3.36222C99.8251 4.22583 100.247 5.54066 100.247 7.30669C100.247 9.06303 99.8154 10.373 98.9518 11.2366C98.0882 12.0905 96.9723 12.5175 95.6041 12.5175ZM95.6186 4.84686C95.1529 4.84686 94.7599 5.06033 94.4397 5.48729C94.1292 5.91424 93.9739 6.51586 93.9739 7.29214C93.9739 8.05872 94.1243 8.65063 94.4251 9.06788C94.7259 9.47543 95.1189 9.6792 95.6041 9.6792C96.099 9.6792 96.4968 9.47058 96.7976 9.05332C97.1081 8.63607 97.2634 8.03931 97.2634 7.26303C97.2634 6.48675 97.1033 5.88998 96.7831 5.47273C96.4726 5.05548 96.0844 4.84686 95.6186 4.84686Z" fill="#E7FAFF"/>
    <path d="M105.579 2.05225C106.287 2.05225 106.908 2.15413 107.442 2.35791C107.985 2.55198 108.257 2.81882 108.257 3.15845C108.257 3.49807 108.126 3.92017 107.864 4.42475C107.612 4.91963 107.398 5.16707 107.223 5.16707C107.175 5.16707 107.117 5.14281 107.049 5.0943C106.991 5.03607 106.845 4.97785 106.612 4.91963C106.389 4.85171 106.195 4.81774 106.03 4.81774C105.467 4.81774 105.011 5.01667 104.662 5.41451C104.322 5.81235 104.152 6.42368 104.152 7.24847C104.152 8.06357 104.327 8.67004 104.676 9.06788C105.035 9.46572 105.486 9.66465 106.03 9.66465C106.253 9.66465 106.5 9.63553 106.772 9.57731C107.054 9.50939 107.253 9.41721 107.369 9.30076C107.388 9.28136 107.427 9.27165 107.485 9.27165C107.544 9.27165 107.65 9.38324 107.806 9.60642C107.971 9.8199 108.121 10.1062 108.257 10.4652C108.393 10.8145 108.461 11.0862 108.461 11.2803C108.461 11.6587 108.169 11.9595 107.587 12.1827C107.005 12.4059 106.316 12.5175 105.52 12.5175C104.24 12.5175 103.187 12.0663 102.362 11.1638C101.537 10.2614 101.125 8.99025 101.125 7.35036C101.125 5.70076 101.547 4.40535 102.391 3.46411C103.245 2.52287 104.307 2.05225 105.579 2.05225Z" fill="#E7FAFF"/>
    <path d="M112.486 12.1681C112.486 12.3137 112.03 12.3865 111.118 12.3865L110.303 12.3428C109.817 12.304 109.575 12.2361 109.575 12.139V2.37246C109.575 2.2075 110.06 2.12502 111.03 2.12502C112.001 2.12502 112.486 2.2075 112.486 2.37246V6.09861L114.262 2.37246C114.329 2.23661 114.718 2.16869 115.426 2.16869C116.717 2.16869 117.396 2.28028 117.464 2.50346C117.464 2.52287 117.459 2.54227 117.449 2.56168L114.917 7.13203L117.857 11.1929C117.857 11.2124 117.765 11.2948 117.58 11.4404C117.134 11.8285 116.61 12.1342 116.008 12.3574C115.824 12.4253 115.639 12.4593 115.455 12.4593L115.106 12.4301C114.795 12.3525 114.553 12.1536 114.378 11.8334L112.719 8.66033H112.486V12.1681Z" fill="#E7FAFF"/>
    <path d="M123.331 6.2296C123.516 6.2296 123.608 6.56923 123.608 7.24847C123.608 7.45225 123.583 7.69483 123.535 7.97624C123.496 8.24793 123.419 8.38378 123.302 8.38378H121.454V9.83931H124.132C124.297 9.83931 124.408 10.0528 124.466 10.4797C124.496 10.6641 124.51 10.863 124.51 11.0765C124.51 11.2803 124.481 11.5471 124.423 11.877C124.365 12.207 124.268 12.3719 124.132 12.3719H119.154C118.785 12.3719 118.601 12.2215 118.601 11.9207V2.56168C118.601 2.30939 118.712 2.18324 118.935 2.18324H124.146C124.35 2.18324 124.452 2.61505 124.452 3.47866C124.452 4.33257 124.35 4.75952 124.146 4.75952H121.454V6.2296H123.331Z" fill="#E7FAFF"/>
    <path d="M125.779 11.7024V2.96923C125.779 2.72664 125.837 2.53742 125.954 2.40157C126.08 2.25602 126.24 2.18324 126.434 2.18324H128.865C130.407 2.18324 131.577 2.57138 132.372 3.34766C133.178 4.12394 133.58 5.34659 133.58 7.01559C133.58 10.5865 132.057 12.3719 129.01 12.3719H126.521C126.026 12.3719 125.779 12.1487 125.779 11.7024ZM128.573 4.94874V9.30076C128.573 9.50454 128.588 9.63553 128.617 9.69376C128.646 9.74227 128.734 9.76653 128.879 9.76653C129.413 9.76653 129.816 9.56761 130.087 9.16977C130.369 8.77192 130.509 8.11208 130.509 7.19025C130.509 6.25872 130.364 5.65225 130.073 5.37084C129.791 5.08944 129.34 4.94874 128.719 4.94874H128.573Z" fill="#E7FAFF"/>
    <path d="M63.3396 19.4167C63.5143 19.4943 63.6987 19.6204 63.8927 19.7951C64.0868 19.9698 64.2663 20.1784 64.4313 20.421C64.5962 20.6539 64.7127 20.8965 64.7806 21.1487L64.4895 25.2242C64.344 25.5347 64.1353 25.8501 63.8636 26.1703C63.5919 26.4808 63.3202 26.7331 63.0485 26.9272C62.6216 27.0048 62.2431 27.063 61.9132 27.1018C61.5833 27.1407 61.2679 27.1552 60.9671 27.1455C60.6663 27.1455 60.3364 27.1212 59.9774 27.0727V29.9256L59.5407 30.2749C59.4437 30.2652 59.2981 30.2312 59.1041 30.173C58.9197 30.1148 58.7353 30.0372 58.551 29.9401C58.3763 29.8528 58.2453 29.7703 58.158 29.6927L58.6528 23.201L58.5218 21.207L57.2847 21.5272C57.1973 21.4107 57.11 21.2458 57.0227 21.0323C56.9353 20.8188 56.882 20.6005 56.8625 20.3773L58.8275 19.4167C58.9245 19.4264 59.0604 19.4797 59.2351 19.5768C59.4194 19.6738 59.5989 19.7805 59.7736 19.897C59.958 20.0037 60.0938 20.0959 60.1811 20.1735L60.1084 21.6145C60.4965 21.1681 60.8895 20.78 61.2873 20.4501C61.6852 20.1202 62.0636 19.8679 62.4227 19.6932C62.7817 19.5088 63.0873 19.4167 63.3396 19.4167ZM62.6847 25.3989C62.8399 24.807 62.9466 24.2296 63.0049 23.6668C63.0631 23.104 63.0825 22.5994 63.0631 22.1531C63.0534 21.697 63.0194 21.338 62.9612 21.076C62.6798 21.1633 62.3596 21.3671 62.0006 21.6873C61.6415 21.9978 61.2825 22.3811 60.9235 22.8372C60.5741 23.2932 60.2636 23.7784 59.9919 24.2927V25.6609C60.4577 25.7094 60.9186 25.7094 61.3747 25.6609C61.8307 25.6124 62.2674 25.525 62.6847 25.3989Z" fill="#D9C9F4"/>
    <path d="M70.6804 19.4167C70.9036 19.5331 71.117 19.7514 71.3208 20.0717C71.5343 20.3822 71.6847 20.7072 71.772 21.0469L71.641 22.8663C71.4761 22.9827 71.2674 23.07 71.0151 23.1283C70.7629 23.1768 70.53 23.2059 70.3165 23.2156L69.9672 22.8808C70.0157 22.5218 70.0448 22.2064 70.0545 21.9347C70.0739 21.6533 70.0642 21.4059 70.0254 21.1924C69.7246 21.4156 69.4432 21.7407 69.1812 22.1676C68.9289 22.5849 68.696 23.0506 68.4825 23.5649L68.5262 26.9272C68.3127 26.9854 68.0653 27.0145 67.7839 27.0145C67.5025 27.0145 67.2502 26.9854 67.027 26.9272C66.7262 26.607 66.4788 26.2431 66.2847 25.8355C66.3526 25.5153 66.4496 25.1757 66.5758 24.8167C66.7019 24.4479 66.8475 24.0841 67.0125 23.725V23.201L66.8378 21.1924L65.5715 21.5126C65.5036 21.3962 65.4211 21.2361 65.324 21.0323C65.227 20.8188 65.1688 20.6005 65.1494 20.3773L67.1143 19.4167C67.2114 19.4264 67.3472 19.4797 67.5219 19.5768C67.7063 19.6738 67.8858 19.7805 68.0604 19.897C68.2448 20.0037 68.3806 20.0959 68.468 20.1735L68.4098 21.3234C68.8076 20.7703 69.2103 20.3142 69.6178 19.9552C70.0254 19.5962 70.3796 19.4167 70.6804 19.4167Z" fill="#D9C9F4"/>
    <path d="M78.0062 24.642C78.0741 24.7293 78.1469 24.8991 78.2245 25.1514C78.3119 25.4037 78.3507 25.6269 78.341 25.821C77.9237 25.9956 77.4871 26.1703 77.031 26.345C76.575 26.5099 76.148 26.6652 75.7502 26.8107C75.362 26.9563 75.0418 27.0727 74.7895 27.1601C74.4887 27.0824 74.1733 26.9611 73.8434 26.7962C73.5135 26.6312 73.2127 26.4372 72.941 26.214C72.6693 25.9811 72.4752 25.7482 72.3588 25.5153L72.5626 21.0614C72.6984 20.8188 72.8876 20.5762 73.1302 20.3336C73.3825 20.0814 73.6299 19.8533 73.8725 19.6496C74.4353 19.5234 74.9836 19.4458 75.5173 19.4167C76.0607 19.3876 76.5798 19.4118 77.0747 19.4894C77.162 19.538 77.2785 19.6447 77.424 19.8097C77.5793 19.9649 77.7297 20.125 77.8752 20.29C78.0208 20.4549 78.1178 20.5762 78.1663 20.6539L78.1081 22.8226C77.8558 23.007 77.5162 23.201 77.0892 23.4048C76.6623 23.6086 76.1917 23.8075 75.6774 24.0016C75.1631 24.1859 74.6488 24.3509 74.1345 24.4965C74.1442 24.6808 74.1588 24.8603 74.1782 25.035C74.1976 25.2097 74.2219 25.3795 74.251 25.5444L78.0062 24.642ZM76.5507 20.9886C76.2014 20.9401 75.8617 20.9256 75.5318 20.945C75.2019 20.9644 74.8574 21.0226 74.4984 21.1196C74.4014 21.4204 74.3237 21.7455 74.2655 22.0948C74.2073 22.4442 74.1636 22.7983 74.1345 23.1574C74.5518 23.0215 74.9884 22.8469 75.4445 22.6334C75.9103 22.4102 76.3324 22.1773 76.7108 21.9347L76.5507 20.9886Z" fill="#D9C9F4"/>
    <path d="M91.0064 25.0496C91.0938 25.166 91.1811 25.331 91.2684 25.5444C91.3558 25.7579 91.4091 25.9762 91.4286 26.1994L89.4636 27.1601C89.2113 27.0339 88.9445 26.869 88.6631 26.6652C88.3817 26.4614 88.1585 26.2382 87.9935 25.9956C88.1682 25.3843 88.2846 24.7681 88.3428 24.1471C88.4011 23.5261 88.4156 22.9487 88.3865 22.415C88.3671 21.8717 88.3137 21.4253 88.2264 21.076C87.8965 21.2118 87.5472 21.4884 87.1784 21.9056C86.8097 22.3229 86.4701 22.8177 86.1596 23.3903L86.0722 26.9272C85.8587 26.9854 85.6113 27.0145 85.3299 27.0145C85.0485 27.0145 84.7962 26.9854 84.573 26.9272C84.2722 26.607 84.0248 26.2431 83.8307 25.8355C83.9763 25.1078 84.1946 24.4237 84.4857 23.7832C84.5245 23.2398 84.5294 22.7304 84.5003 22.2549C84.4711 21.7795 84.4178 21.3865 84.3401 21.076C83.952 21.2215 83.5639 21.5175 83.1757 21.9638C82.7876 22.4005 82.4383 22.9099 82.1277 23.4921L82.0404 26.9272C81.8269 26.9854 81.5795 27.0145 81.2981 27.0145C81.0167 27.0145 80.7644 26.9854 80.5412 26.9272C80.2404 26.607 79.993 26.2431 79.7989 25.8355C79.8862 25.3795 80.0027 24.9428 80.1482 24.5256C80.3035 24.1083 80.4781 23.7056 80.6722 23.3175V23.201L80.4976 21.1924L79.2312 21.5126C79.1633 21.3962 79.0808 21.2361 78.9838 21.0323C78.8868 20.8188 78.8286 20.6005 78.8091 20.3773L80.7741 19.4167C80.8711 19.4264 81.007 19.4797 81.1817 19.5768C81.366 19.6738 81.5455 19.7805 81.7202 19.897C81.9046 20.0037 82.0404 20.0959 82.1277 20.1735L82.0695 21.1924C82.5547 20.6393 83.0253 20.2075 83.4814 19.897C83.9472 19.5768 84.3304 19.4167 84.6312 19.4167C84.7962 19.4943 84.9709 19.6447 85.1552 19.8679C85.3493 20.0911 85.524 20.3385 85.6792 20.6102C85.8345 20.8722 85.9364 21.1196 85.9849 21.3525C86.4992 20.7509 87.0086 20.2803 87.5132 19.9407C88.0275 19.5913 88.4593 19.4167 88.8086 19.4167C88.9542 19.4943 89.1143 19.6301 89.2889 19.8242C89.4636 20.0183 89.6237 20.2366 89.7693 20.4792C89.9148 20.7121 90.0167 20.945 90.0749 21.1779L89.8275 25.3552L91.0064 25.0496Z" fill="#D9C9F4"/>
    <path d="M93.6962 18.587C93.1916 18.3153 92.7356 17.9563 92.328 17.5099C92.3377 17.3547 92.4008 17.18 92.5172 16.9859C92.6434 16.7822 92.7889 16.5978 92.9539 16.4328C93.1286 16.2582 93.2935 16.1514 93.4488 16.1126C93.604 16.1126 93.7787 16.1757 93.9728 16.3018C94.1668 16.4183 94.3464 16.5638 94.5113 16.7385C94.6763 16.9035 94.7733 17.0636 94.8024 17.2188C94.7927 17.3838 94.7248 17.5681 94.5986 17.7719C94.4725 17.966 94.3269 18.1407 94.162 18.2959C93.997 18.4415 93.8418 18.5385 93.6962 18.587ZM95.2973 24.9768C95.3652 25.0932 95.4477 25.2727 95.5447 25.5153C95.6418 25.7482 95.7 25.9762 95.7194 26.1994L93.7544 27.1601C93.017 26.8204 92.5124 26.3838 92.2407 25.8501L92.5463 21.2797L91.4838 21.6C91.4159 21.4835 91.3334 21.3089 91.2364 21.076C91.1393 20.8334 91.0811 20.6005 91.0617 20.3773L93.0267 19.4167C93.1237 19.4264 93.2644 19.4797 93.4488 19.5768C93.6331 19.6738 93.8127 19.7805 93.9873 19.897C94.1717 20.0134 94.3124 20.1105 94.4094 20.1881L94.0019 23.3903V25.3698L95.2973 24.9768Z" fill="#D9C9F4"/>
    <path d="M103.751 25.0641C103.819 25.1805 103.901 25.3455 103.998 25.559C104.096 25.7628 104.154 25.9762 104.173 26.1994L102.208 27.1601C102.111 27.1504 101.97 27.097 101.786 27C101.611 26.9029 101.432 26.7962 101.248 26.6797C101.073 26.5633 100.942 26.4711 100.855 26.4032L100.913 25.1951C100.398 25.7579 99.8891 26.2285 99.3845 26.607C98.8896 26.9757 98.5015 27.1601 98.2201 27.1601C98.0745 27.0824 97.8804 26.9466 97.6378 26.7525C97.405 26.5584 97.1866 26.3401 96.9829 26.0975C96.7791 25.8549 96.6481 25.6221 96.5899 25.3989L96.9246 21.2506L95.8476 21.5272C95.7602 21.4107 95.6729 21.2458 95.5856 21.0323C95.4982 20.8188 95.4449 20.6005 95.4254 20.3773L97.3904 19.4167C97.6427 19.5428 97.9095 19.7078 98.1909 19.9115C98.4821 20.1153 98.7052 20.3385 98.8605 20.5811C98.6858 21.1827 98.5597 21.7989 98.4821 22.4296C98.4141 23.0506 98.385 23.6328 98.3947 24.1762C98.4044 24.7099 98.4432 25.1514 98.5112 25.5008C98.8702 25.3552 99.2583 25.0544 99.6756 24.5983C100.103 24.1326 100.496 23.6037 100.855 23.0118L100.927 19.7951C101.151 19.7369 101.427 19.6835 101.757 19.635C102.097 19.5865 102.373 19.5913 102.587 19.6496C102.742 19.8048 102.878 19.9746 102.994 20.159C103.111 20.3434 103.217 20.5374 103.314 20.7412C103.285 21.139 103.179 21.5611 102.994 22.0075C102.82 22.4539 102.591 22.9002 102.31 23.3466V23.3757L102.485 25.3843L103.751 25.0641Z" fill="#D9C9F4"/>
    <path d="M116.08 25.0496C116.167 25.166 116.255 25.331 116.342 25.5444C116.429 25.7579 116.483 25.9762 116.502 26.1994L114.537 27.1601C114.285 27.0339 114.018 26.869 113.737 26.6652C113.455 26.4614 113.232 26.2382 113.067 25.9956C113.242 25.3843 113.358 24.7681 113.417 24.1471C113.475 23.5261 113.489 22.9487 113.46 22.415C113.441 21.8717 113.387 21.4253 113.3 21.076C112.97 21.2118 112.621 21.4884 112.252 21.9056C111.883 22.3229 111.544 22.8177 111.233 23.3903L111.146 26.9272C110.932 26.9854 110.685 27.0145 110.404 27.0145C110.122 27.0145 109.87 26.9854 109.647 26.9272C109.346 26.607 109.098 26.2431 108.904 25.8355C109.05 25.1078 109.268 24.4237 109.559 23.7832C109.598 23.2398 109.603 22.7304 109.574 22.2549C109.545 21.7795 109.491 21.3865 109.414 21.076C109.026 21.2215 108.638 21.5175 108.249 21.9638C107.861 22.4005 107.512 22.9099 107.201 23.4921L107.114 26.9272C106.901 26.9854 106.653 27.0145 106.372 27.0145C106.09 27.0145 105.838 26.9854 105.615 26.9272C105.314 26.607 105.067 26.2431 104.873 25.8355C104.96 25.3795 105.076 24.9428 105.222 24.5256C105.377 24.1083 105.552 23.7056 105.746 23.3175V23.201L105.571 21.1924L104.305 21.5126C104.237 21.3962 104.155 21.2361 104.058 21.0323C103.96 20.8188 103.902 20.6005 103.883 20.3773L105.848 19.4167C105.945 19.4264 106.081 19.4797 106.255 19.5768C106.44 19.6738 106.619 19.7805 106.794 19.897C106.978 20.0037 107.114 20.0959 107.201 20.1735L107.143 21.1924C107.628 20.6393 108.099 20.2075 108.555 19.897C109.021 19.5768 109.404 19.4167 109.705 19.4167C109.87 19.4943 110.045 19.6447 110.229 19.8679C110.423 20.0911 110.598 20.3385 110.753 20.6102C110.908 20.8722 111.01 21.1196 111.059 21.3525C111.573 20.7509 112.082 20.2803 112.587 19.9407C113.101 19.5913 113.533 19.4167 113.882 19.4167C114.028 19.4943 114.188 19.6301 114.363 19.8242C114.537 20.0183 114.697 20.2366 114.843 20.4792C114.989 20.7121 115.09 20.945 115.149 21.1779L114.901 25.3552L116.08 25.0496Z" fill="#D9C9F4"/>
    <path d="M61.3747 40.5946L62.6701 40.5655C64.0092 40.5655 64.6787 41.1186 64.6787 42.2248C64.6787 42.739 64.4555 43.2145 64.0092 43.6512C63.5725 44.0975 63.0485 44.4323 62.4372 44.6555C61.8259 44.8787 61.2534 44.9903 60.7197 44.9903C60.1957 44.9903 59.7057 44.9126 59.2496 44.7574C58.7935 44.6118 58.4054 44.3692 58.0852 44.0296C57.765 43.69 57.6049 43.297 57.6049 42.8506C57.6049 42.7439 57.7747 42.4625 58.1143 42.0064C58.4636 41.5601 58.6917 41.2981 58.7984 41.2204C58.7111 41.1622 58.5413 40.9973 58.289 40.7256C58.0367 40.4442 57.896 40.2501 57.8669 40.1434C58.1094 39.697 58.4927 39.2603 59.0167 38.8334C58.2404 38.3676 57.8523 37.601 57.8523 36.5336C57.8523 35.6797 58.124 35.0296 58.6674 34.5832C59.2108 34.1369 59.89 33.9137 60.7051 33.9137C61.5202 33.9137 62.151 34.0447 62.5973 34.3067C63.3736 34.1514 64.1353 34.0738 64.8825 34.0738C65.0669 34.0738 65.159 34.1854 65.159 34.4086C65.159 34.7967 65.0863 35.0636 64.9407 35.2091L63.2669 34.9326C63.6162 35.3789 63.7909 35.9126 63.7909 36.5336C63.7909 37.504 63.5046 38.2026 62.9321 38.6296C62.3596 39.0469 61.6561 39.2555 60.8216 39.2555C60.5596 39.2555 60.2491 39.2215 59.89 39.1536C59.7445 39.4544 59.5601 39.7795 59.3369 40.1288C59.5116 40.4393 60.1909 40.5946 61.3747 40.5946ZM63.2232 43.2727C63.3202 43.001 63.3687 42.7196 63.3687 42.4285C63.3687 42.1471 63.2572 41.9191 63.034 41.7444C62.8108 41.5698 62.5245 41.4824 62.1752 41.4824C60.7876 41.4824 59.9386 41.4679 59.628 41.4388C59.3661 41.856 59.1817 42.2053 59.0749 42.4867C58.9779 42.7779 58.9294 42.9428 58.9294 42.9816C58.9294 43.3601 59.1089 43.6415 59.4679 43.8258C59.827 44.0102 60.2394 44.1024 60.7051 44.1024C61.1806 44.1024 61.6561 44.0248 62.1316 43.8695C62.6167 43.7142 62.9806 43.5153 63.2232 43.2727ZM62.4809 36.5919C62.4809 35.3886 61.9278 34.787 60.8216 34.787C59.7154 34.787 59.1623 35.3692 59.1623 36.5336C59.1623 37.1256 59.3078 37.5816 59.5989 37.9018C59.89 38.2221 60.3121 38.3822 60.8652 38.3822C61.9423 38.3822 62.4809 37.7854 62.4809 36.5919Z" fill="#E7FAFF"/>
    <path d="M71.7981 36.7229L71.7253 40.4781C72.1425 40.5072 72.5598 40.5752 72.977 40.6819L72.9479 41.1913C72.7927 41.269 72.5113 41.3563 72.1037 41.4533C71.7059 41.5407 71.3129 41.5843 70.9247 41.5843C70.7501 41.235 70.653 40.9002 70.6336 40.58C69.5274 41.3078 68.7512 41.6717 68.3048 41.6717C67.6159 41.6717 67.0628 41.4873 66.6455 41.1186C66.2282 40.7498 66.0196 40.2355 66.0196 39.5757C66.0196 38.0522 66.9512 37.2663 68.8142 37.2177C69.901 37.1886 70.4493 37.1741 70.459 37.1741L70.4444 36.6792C70.425 36.0097 70.2989 35.5293 70.066 35.2382C69.8331 34.9374 69.4159 34.787 68.8142 34.787C68.5619 34.787 68.2902 34.8452 67.9991 34.9617L67.6498 36.4172C67.6013 36.4269 67.5188 36.4318 67.4024 36.4318L66.8056 36.3881C66.6504 35.9708 66.5679 35.3935 66.5582 34.656C66.7425 34.559 67.1646 34.4134 67.8245 34.2194C68.4843 34.0156 68.9064 33.9137 69.0908 33.9137C70.0805 33.9137 70.7792 34.132 71.1867 34.5687C71.5943 35.0053 71.7981 35.7234 71.7981 36.7229ZM68.625 40.6819C68.9064 40.6819 69.5566 40.3665 70.5754 39.7358L70.5026 37.9164C69.8428 37.9746 69.2897 38.028 68.8433 38.0765C68.397 38.125 68.038 38.256 67.7663 38.4695C67.4946 38.6733 67.3587 38.9983 67.3587 39.4447C67.3587 40.2695 67.7808 40.6819 68.625 40.6819Z" fill="#E7FAFF"/>
    <path d="M80.8523 35.5439C80.8912 35.8544 80.9106 36.2134 80.9106 36.621C80.9106 37.0285 80.8717 38.3191 80.7941 40.4927L82.0168 40.6091C82.0168 40.8808 81.9343 41.1719 81.7693 41.4824H78.4216L78.3779 40.973C78.8243 40.8177 79.261 40.7013 79.6879 40.6237C79.6297 38.0425 79.5763 36.6064 79.5278 36.3153C79.489 36.0242 79.4211 35.7816 79.324 35.5876C79.227 35.3838 79.0766 35.2431 78.8728 35.1655C78.6691 35.0878 78.3585 35.049 77.9413 35.049C77.5337 35.049 76.9952 35.2043 76.3257 35.5148C76.2674 37.7272 76.2286 39.3865 76.2092 40.4927L77.4319 40.6091C77.4319 40.8808 77.3494 41.1719 77.1844 41.4824H73.8367L73.793 40.973C74.2394 40.8177 74.6761 40.7013 75.103 40.6237C75.0933 39.925 75.0691 38.9401 75.0302 37.669C74.9914 36.3881 74.9672 35.5487 74.9575 35.1509C74.4238 35.1218 73.9968 35.0636 73.6766 34.9762L73.7348 34.2194C74.2588 34.0738 75.0205 34.001 76.02 34.001C76.1558 34.2436 76.2432 34.4959 76.282 34.7579C76.7089 34.5347 77.131 34.3407 77.5483 34.1757C77.9655 34.001 78.2275 33.9137 78.3343 33.9137C79.4114 33.9137 80.1634 34.2436 80.5903 34.9035C81.0367 34.6609 81.4976 34.4377 81.9731 34.2339C82.4583 34.0204 82.7494 33.9137 82.8464 33.9137C83.7294 33.9137 84.3893 34.132 84.8259 34.5687C85.2723 34.9956 85.4955 35.6991 85.4955 36.6792C85.4955 36.9703 85.4567 38.2415 85.379 40.4927L86.6017 40.6091C86.6017 40.8808 86.5192 41.1719 86.3542 41.4824H83.0065L82.9629 40.973C83.4092 40.8177 83.8459 40.7013 84.2728 40.6237C84.234 39.0905 84.2 37.931 84.1709 37.145C84.1418 36.359 84.0302 35.8156 83.8362 35.5148C83.6421 35.2043 83.254 35.049 82.6717 35.049C82.0895 35.049 81.4831 35.214 80.8523 35.5439Z" fill="#E7FAFF"/>
    <path d="M90.9651 40.6673C91.392 40.6673 92.0616 40.4636 92.9737 40.056C93.158 40.3083 93.2551 40.5315 93.2648 40.7256C92.7699 41.0167 92.2847 41.2447 91.8093 41.4097C91.3338 41.5746 90.9942 41.6571 90.7904 41.6571C89.6648 41.6571 88.806 41.3223 88.2141 40.6528C87.6222 39.9735 87.3262 39.0274 87.3262 37.8145C87.3262 36.6016 87.6125 35.6506 88.185 34.9617C88.7672 34.263 89.6357 33.9137 90.7904 33.9137C91.6831 33.9137 92.3624 34.2339 92.8281 34.8743C93.3036 35.5148 93.5413 36.3735 93.5413 37.4506C93.4637 37.5865 93.4006 37.6787 93.3521 37.7272L88.6653 37.6544C88.675 38.6345 88.8448 39.3816 89.1748 39.8959C89.5144 40.4102 90.1111 40.6673 90.9651 40.6673ZM92.2168 36.8248C92.2168 36.1843 92.1004 35.6894 91.8675 35.3401C91.6346 34.9811 91.2465 34.8016 90.7031 34.8016C90.1597 34.8016 89.6745 34.9035 89.2475 35.1072C88.9564 35.6894 88.7721 36.2862 88.6944 36.8975C89.461 36.8878 90.6351 36.8636 92.2168 36.8248Z" fill="#E7FAFF"/>
    <path d="M95.9243 40.5509C96.2639 40.6964 96.6763 40.7692 97.1615 40.7692C97.6564 40.7692 98.0445 40.677 98.3259 40.4927C98.6073 40.3083 98.748 40.056 98.748 39.7358C98.748 39.4156 98.617 39.1487 98.355 38.9353C98.093 38.7218 97.7728 38.5326 97.3944 38.3676C97.016 38.2026 96.6375 38.028 96.2591 37.8436C95.8806 37.6593 95.5604 37.4167 95.2984 37.1159C95.0364 36.8151 94.9054 36.4657 94.9054 36.0679C94.9054 35.3983 95.1286 34.8743 95.575 34.4959C96.0213 34.1078 96.6375 33.9137 97.4235 33.9137C98.2192 33.9137 98.9664 34.0932 99.665 34.4522C99.6747 34.5493 99.6796 34.8113 99.6796 35.2382C99.6796 35.6555 99.6359 36.0145 99.5486 36.3153C99.3157 36.3929 99.0391 36.4318 98.7189 36.4318L98.2386 34.9471C98.0251 34.8404 97.734 34.787 97.3653 34.787C97.0062 34.787 96.72 34.8841 96.5065 35.0781C96.293 35.2625 96.1863 35.5002 96.1863 35.7913C96.1863 36.0727 96.3173 36.3202 96.5793 36.5336C96.851 36.7471 97.1761 36.9412 97.5545 37.1159C97.9329 37.2808 98.3114 37.4603 98.6898 37.6544C99.0682 37.8388 99.3885 38.0862 99.6505 38.3967C99.9222 38.6975 100.058 39.0469 100.058 39.4447C100.058 40.1434 99.7863 40.6916 99.2429 41.0894C98.7092 41.4776 98.0494 41.6717 97.2634 41.6717C96.8364 41.6717 96.3804 41.6037 95.8952 41.4679C95.41 41.3223 95.0025 41.138 94.6726 40.9148C94.6726 40.2646 94.7308 39.6873 94.8472 39.1827C95.0704 39.1439 95.3712 39.1245 95.7496 39.1245L95.9243 40.5509Z" fill="#E7FAFF"/>
</svg>
